<?xml version="1.0" encoding="UTF-8" standalone="no"?>
<svg
   xmlns:dc="http://purl.org/dc/elements/1.1/"
   xmlns:cc="http://creativecommons.org/ns#"
   xmlns:rdf="http://www.w3.org/1999/02/22-rdf-syntax-ns#"
   xmlns:svg="http://www.w3.org/2000/svg"
   xmlns="http://www.w3.org/2000/svg"
   xmlns:sodipodi="http://sodipodi.sourceforge.net/DTD/sodipodi-0.dtd"
   xmlns:inkscape="http://www.inkscape.org/namespaces/inkscape"
   width="250"
   height="400"
   viewBox="0 0 250 400"
   version="1.1"
   id="svg1399"
   sodipodi:docname="denah.svg"
   inkscape:version="1.0.1 (c497b03c, 2020-09-10)">
  <metadata
     id="metadata1403">
    <rdf:RDF>
      <cc:Work
         rdf:about="">
        <dc:format>image/svg+xml</dc:format>
        <dc:type
           rdf:resource="http://purl.org/dc/dcmitype/StillImage" />
        <dc:title></dc:title>
      </cc:Work>
    </rdf:RDF>
  </metadata>
  <sodipodi:namedview
     pagecolor="#ffffff"
     bordercolor="#666666"
     borderopacity="1"
     objecttolerance="10"
     gridtolerance="10"
     guidetolerance="10"
     inkscape:pageopacity="0"
     inkscape:pageshadow="2"
     inkscape:window-width="1366"
     inkscape:window-height="680"
     id="namedview1401"
     showgrid="false"
     inkscape:zoom="1.1728665"
     inkscape:cx="51.281716"
     inkscape:cy="126.18657"
     inkscape:window-x="0"
     inkscape:window-y="23"
     inkscape:window-maximized="1"
     inkscape:current-layer="svg1399" />
  <defs
     id="defs1189">
    <linearGradient
       id="linear-gradient"
       x1="0.5"
       x2="0.5"
       y2="1"
       gradientUnits="objectBoundingBox">
      <stop
         offset="0"
         stop-color="#c8c8f3"
         id="stop1184" />
      <stop
         offset="1"
         stop-color="#f9f9ff"
         id="stop1186" />
    </linearGradient>
  </defs>
  <g
     id="Rectangle_219"
     data-name="Rectangle 219"
     transform="translate(0,21)"
     fill="#fefefe"
     stroke="#707070"
     stroke-width="2">
    <rect
       width="343"
       height="431"
       stroke="none"
       id="rect1191"
       x="0"
       y="0" />
    <rect
       x="1"
       y="1"
       width="341"
       height="429"
       fill="none"
       id="rect1193" />
  </g>
  <g
     id="Meja_4_kursi"
     transform="translate(-16,-91)">
    <g
       id="Group_411"
       data-name="Group 411"
       transform="rotate(-90,97.8895,68.7505)">
      <path
         id="Path_997"
         data-name="Path 997"
         d="m 10.462,15.859 c -2.885,0 -5.77,-0.036 -8.654,0.016 -1.3,0.023 -1.925,-0.512 -1.791,-1.782 C 0.471,9.828 0.968,5.568 1.435,1.3 1.525,0.478 2.144,0.411 2.743,0.356 A 87.143,87.143 0 0 1 18.413,0.35 c 0.722,0.064 1.241,0.287 1.335,1.167 0.432,4.065 0.908,8.127 1.379,12.188 0.2,1.691 -0.563,2.242 -2.212,2.182 C 16.1,15.786 13.28,15.859 10.462,15.859 Z"
         transform="translate(2.832,5.853)"
         fill="url(#linear-gradient)" />
      <path
         id="Path_998"
         data-name="Path 998"
         d="m 13.221,0 a 52.738,52.738 0 0 1 11.015,1.185 c 1.749,0.422 2.883,1.846 2.483,3.271 -0.492,1.752 -1.876,1.6 -3.263,1.382 A 64.094,64.094 0 0 0 3.276,5.856 C 1.886,6.081 0.5,6.17 0.073,4.384 -0.29,2.871 0.732,1.62 2.444,1.184 A 51.153,51.153 0 0 1 13.221,0 Z"
         fill="url(#linear-gradient)" />
      <path
         id="Path_999"
         data-name="Path 999"
         d="m 3.283,10.21 c 0.065,0.761 0.135,1.606 -0.84,1.762 C 1.468,12.128 1.272,11.334 1.172,10.556 0.8,7.638 0.416,4.721 0.048,1.8 -0.047,1.05 -0.1,0.188 0.859,0.023 c 1.035,-0.179 1.1,0.7 1.2,1.447 q 0.608,4.371 1.224,8.74 z"
         transform="translate(23.465,7.131)"
         fill="url(#linear-gradient)" />
      <path
         id="Path_1000"
         data-name="Path 1000"
         d="M 0.042,10.069 C 0.458,7.1 0.875,4.184 1.27,1.268 c 0.089,-0.651 0.3,-1.3 1.013,-1.267 0.8,0.036 1.091,0.707 1,1.46 Q 2.695,6.241 2.066,11.014 C 1.975,11.714 1.555,12.162 0.834,11.991 -0.3,11.722 0.059,10.779 0.042,10.069 Z"
         transform="translate(0.037,7.342)"
         fill="url(#linear-gradient)" />
    </g>
    <g
       id="Group_414"
       data-name="Group 414"
       transform="rotate(-90,115.1485,86.0095)">
      <path
         id="Path_997-2"
         data-name="Path 997"
         d="m 10.462,15.859 c -2.885,0 -5.77,-0.036 -8.654,0.016 -1.3,0.023 -1.925,-0.512 -1.791,-1.782 C 0.471,9.828 0.968,5.568 1.435,1.3 1.525,0.478 2.144,0.411 2.743,0.356 A 87.143,87.143 0 0 1 18.413,0.35 c 0.722,0.064 1.241,0.287 1.335,1.167 0.432,4.065 0.908,8.127 1.379,12.188 0.2,1.691 -0.563,2.242 -2.212,2.182 C 16.1,15.786 13.28,15.859 10.462,15.859 Z"
         transform="translate(2.832,5.853)"
         fill="url(#linear-gradient)" />
      <path
         id="Path_998-2"
         data-name="Path 998"
         d="m 13.221,0 a 52.738,52.738 0 0 1 11.015,1.185 c 1.749,0.422 2.883,1.846 2.483,3.271 -0.492,1.752 -1.876,1.6 -3.263,1.382 A 64.094,64.094 0 0 0 3.276,5.856 C 1.886,6.081 0.5,6.17 0.073,4.384 -0.29,2.871 0.732,1.62 2.444,1.184 A 51.153,51.153 0 0 1 13.221,0 Z"
         fill="url(#linear-gradient)" />
      <path
         id="Path_999-2"
         data-name="Path 999"
         d="m 3.283,10.21 c 0.065,0.761 0.135,1.606 -0.84,1.762 C 1.468,12.128 1.272,11.334 1.172,10.556 0.8,7.638 0.416,4.721 0.048,1.8 -0.047,1.05 -0.1,0.188 0.859,0.023 c 1.035,-0.179 1.1,0.7 1.2,1.447 q 0.608,4.371 1.224,8.74 z"
         transform="translate(23.465,7.131)"
         fill="url(#linear-gradient)" />
      <path
         id="Path_1000-2"
         data-name="Path 1000"
         d="M 0.042,10.069 C 0.458,7.1 0.875,4.184 1.27,1.268 c 0.089,-0.651 0.3,-1.3 1.013,-1.267 0.8,0.036 1.091,0.707 1,1.46 Q 2.695,6.241 2.066,11.014 C 1.975,11.714 1.555,12.162 0.834,11.991 -0.3,11.722 0.059,10.779 0.042,10.069 Z"
         transform="translate(0.037,7.342)"
         fill="url(#linear-gradient)" />
    </g>
    <g
       id="Group_412"
       data-name="Group 412"
       transform="rotate(90,-8.139,129.702)">
      <path
         id="Path_997-3"
         data-name="Path 997"
         d="m 10.462,15.859 c -2.885,0 -5.77,-0.036 -8.654,0.016 -1.3,0.023 -1.925,-0.512 -1.791,-1.782 C 0.471,9.828 0.968,5.568 1.435,1.3 1.525,0.478 2.144,0.411 2.743,0.356 A 87.143,87.143 0 0 1 18.413,0.35 c 0.722,0.064 1.241,0.287 1.335,1.167 0.432,4.065 0.908,8.127 1.379,12.188 0.2,1.691 -0.563,2.242 -2.212,2.182 C 16.1,15.786 13.28,15.859 10.462,15.859 Z"
         transform="translate(2.832,5.853)"
         fill="url(#linear-gradient)" />
      <path
         id="Path_998-3"
         data-name="Path 998"
         d="m 13.221,0 a 52.738,52.738 0 0 1 11.015,1.185 c 1.749,0.422 2.883,1.846 2.483,3.271 -0.492,1.752 -1.876,1.6 -3.263,1.382 A 64.094,64.094 0 0 0 3.276,5.856 C 1.886,6.081 0.5,6.17 0.073,4.384 -0.29,2.871 0.732,1.62 2.444,1.184 A 51.153,51.153 0 0 1 13.221,0 Z"
         fill="url(#linear-gradient)" />
      <path
         id="Path_999-3"
         data-name="Path 999"
         d="m 3.283,10.21 c 0.065,0.761 0.135,1.606 -0.84,1.762 C 1.468,12.128 1.272,11.334 1.172,10.556 0.8,7.638 0.416,4.721 0.048,1.8 -0.047,1.05 -0.1,0.188 0.859,0.023 c 1.035,-0.179 1.1,0.7 1.2,1.447 q 0.608,4.371 1.224,8.74 z"
         transform="translate(23.465,7.131)"
         fill="url(#linear-gradient)" />
      <path
         id="Path_1000-3"
         data-name="Path 1000"
         d="M 0.042,10.069 C 0.458,7.1 0.875,4.184 1.27,1.268 c 0.089,-0.651 0.3,-1.3 1.013,-1.267 0.8,0.036 1.091,0.707 1,1.46 Q 2.695,6.241 2.066,11.014 C 1.975,11.714 1.555,12.162 0.834,11.991 -0.3,11.722 0.059,10.779 0.042,10.069 Z"
         transform="translate(0.037,7.342)"
         fill="url(#linear-gradient)" />
    </g>
    <g
       id="Group_413"
       data-name="Group 413"
       transform="rotate(90,-26.398,147.961)">
      <path
         id="Path_997-4"
         data-name="Path 997"
         d="m 10.462,15.859 c -2.885,0 -5.77,-0.036 -8.654,0.016 -1.3,0.023 -1.925,-0.512 -1.791,-1.782 C 0.471,9.828 0.968,5.568 1.435,1.3 1.525,0.478 2.144,0.411 2.743,0.356 A 87.143,87.143 0 0 1 18.413,0.35 c 0.722,0.064 1.241,0.287 1.335,1.167 0.432,4.065 0.908,8.127 1.379,12.188 0.2,1.691 -0.563,2.242 -2.212,2.182 C 16.1,15.786 13.28,15.859 10.462,15.859 Z"
         transform="translate(2.832,5.853)"
         fill="url(#linear-gradient)" />
      <path
         id="Path_998-4"
         data-name="Path 998"
         d="m 13.221,0 a 52.738,52.738 0 0 1 11.015,1.185 c 1.749,0.422 2.883,1.846 2.483,3.271 -0.492,1.752 -1.876,1.6 -3.263,1.382 A 64.094,64.094 0 0 0 3.276,5.856 C 1.886,6.081 0.5,6.17 0.073,4.384 -0.29,2.871 0.732,1.62 2.444,1.184 A 51.153,51.153 0 0 1 13.221,0 Z"
         fill="url(#linear-gradient)" />
      <path
         id="Path_999-4"
         data-name="Path 999"
         d="m 3.283,10.21 c 0.065,0.761 0.135,1.606 -0.84,1.762 C 1.468,12.128 1.272,11.334 1.172,10.556 0.8,7.638 0.416,4.721 0.048,1.8 -0.047,1.05 -0.1,0.188 0.859,0.023 c 1.035,-0.179 1.1,0.7 1.2,1.447 q 0.608,4.371 1.224,8.74 z"
         transform="translate(23.465,7.131)"
         fill="url(#linear-gradient)" />
      <path
         id="Path_1000-4"
         data-name="Path 1000"
         d="M 0.042,10.069 C 0.458,7.1 0.875,4.184 1.27,1.268 c 0.089,-0.651 0.3,-1.3 1.013,-1.267 0.8,0.036 1.091,0.707 1,1.46 Q 2.695,6.241 2.066,11.014 C 1.975,11.714 1.555,12.162 0.834,11.991 -0.3,11.722 0.059,10.779 0.042,10.069 Z"
         transform="translate(0.037,7.342)"
         fill="url(#linear-gradient)" />
    </g>
    <rect
       id="Rectangle_220"
       data-name="Rectangle 220"
       width="37"
       height="68"
       rx="12"
       transform="translate(57,135)"
       fill="url(#linear-gradient)"
       x="0"
       y="0" />
  </g>
  <g
     id="Meja_4_kursi_select"
     transform="translate(-16,-91)">
    <g
       id="Group_430"
       data-name="Group 430"
       transform="rotate(-90,254.3895,7.2505)">
      <path
         id="Path_997-5"
         data-name="Path 997"
         d="m 10.462,15.859 c -2.885,0 -5.77,-0.036 -8.654,0.016 -1.3,0.023 -1.925,-0.512 -1.791,-1.782 C 0.471,9.828 0.968,5.568 1.435,1.3 1.525,0.478 2.144,0.411 2.743,0.356 A 87.143,87.143 0 0 1 18.413,0.35 c 0.722,0.064 1.241,0.287 1.335,1.167 0.432,4.065 0.908,8.127 1.379,12.188 0.2,1.691 -0.563,2.242 -2.212,2.182 C 16.1,15.786 13.28,15.859 10.462,15.859 Z"
         transform="translate(2.832,5.853)"
         fill="#00daac" />
      <path
         id="Path_998-5"
         data-name="Path 998"
         d="m 13.221,0 a 52.738,52.738 0 0 1 11.015,1.185 c 1.749,0.422 2.883,1.846 2.483,3.271 -0.492,1.752 -1.876,1.6 -3.263,1.382 A 64.094,64.094 0 0 0 3.276,5.856 C 1.886,6.081 0.5,6.17 0.073,4.384 -0.29,2.871 0.732,1.62 2.444,1.184 A 51.153,51.153 0 0 1 13.221,0 Z"
         fill="#00daac" />
      <path
         id="Path_999-5"
         data-name="Path 999"
         d="m 3.283,10.21 c 0.065,0.761 0.135,1.606 -0.84,1.762 C 1.468,12.128 1.272,11.334 1.172,10.556 0.8,7.638 0.416,4.721 0.048,1.8 -0.047,1.05 -0.1,0.188 0.859,0.023 c 1.035,-0.179 1.1,0.7 1.2,1.447 q 0.608,4.371 1.224,8.74 z"
         transform="translate(23.465,7.131)"
         fill="#00daac" />
      <path
         id="Path_1000-5"
         data-name="Path 1000"
         d="M 0.042,10.069 C 0.458,7.1 0.875,4.184 1.27,1.268 c 0.089,-0.651 0.3,-1.3 1.013,-1.267 0.8,0.036 1.091,0.707 1,1.46 Q 2.695,6.241 2.066,11.014 C 1.975,11.714 1.555,12.162 0.834,11.991 -0.3,11.722 0.059,10.779 0.042,10.069 Z"
         transform="translate(0.037,7.342)"
         fill="#00daac" />
    </g>
    <g
       id="Group_429"
       data-name="Group 429"
       transform="rotate(-90,271.6485,24.5095)">
      <path
         id="Path_997-6"
         data-name="Path 997"
         d="m 10.462,15.859 c -2.885,0 -5.77,-0.036 -8.654,0.016 -1.3,0.023 -1.925,-0.512 -1.791,-1.782 C 0.471,9.828 0.968,5.568 1.435,1.3 1.525,0.478 2.144,0.411 2.743,0.356 A 87.143,87.143 0 0 1 18.413,0.35 c 0.722,0.064 1.241,0.287 1.335,1.167 0.432,4.065 0.908,8.127 1.379,12.188 0.2,1.691 -0.563,2.242 -2.212,2.182 C 16.1,15.786 13.28,15.859 10.462,15.859 Z"
         transform="translate(2.832,5.853)"
         fill="#00daac" />
      <path
         id="Path_998-6"
         data-name="Path 998"
         d="m 13.221,0 a 52.738,52.738 0 0 1 11.015,1.185 c 1.749,0.422 2.883,1.846 2.483,3.271 -0.492,1.752 -1.876,1.6 -3.263,1.382 A 64.094,64.094 0 0 0 3.276,5.856 C 1.886,6.081 0.5,6.17 0.073,4.384 -0.29,2.871 0.732,1.62 2.444,1.184 A 51.153,51.153 0 0 1 13.221,0 Z"
         fill="#00daac" />
      <path
         id="Path_999-6"
         data-name="Path 999"
         d="m 3.283,10.21 c 0.065,0.761 0.135,1.606 -0.84,1.762 C 1.468,12.128 1.272,11.334 1.172,10.556 0.8,7.638 0.416,4.721 0.048,1.8 -0.047,1.05 -0.1,0.188 0.859,0.023 c 1.035,-0.179 1.1,0.7 1.2,1.447 q 0.608,4.371 1.224,8.74 z"
         transform="translate(23.465,7.131)"
         fill="#00daac" />
      <path
         id="Path_1000-6"
         data-name="Path 1000"
         d="M 0.042,10.069 C 0.458,7.1 0.875,4.184 1.27,1.268 c 0.089,-0.651 0.3,-1.3 1.013,-1.267 0.8,0.036 1.091,0.707 1,1.46 Q 2.695,6.241 2.066,11.014 C 1.975,11.714 1.555,12.162 0.834,11.991 -0.3,11.722 0.059,10.779 0.042,10.069 Z"
         transform="translate(0.037,7.342)"
         fill="#00daac" />
    </g>
    <g
       id="Group_428"
       data-name="Group 428"
       transform="rotate(90,53.361,286.202)">
      <path
         id="Path_997-7"
         data-name="Path 997"
         d="m 10.462,15.859 c -2.885,0 -5.77,-0.036 -8.654,0.016 -1.3,0.023 -1.925,-0.512 -1.791,-1.782 C 0.471,9.828 0.968,5.568 1.435,1.3 1.525,0.478 2.144,0.411 2.743,0.356 A 87.143,87.143 0 0 1 18.413,0.35 c 0.722,0.064 1.241,0.287 1.335,1.167 0.432,4.065 0.908,8.127 1.379,12.188 0.2,1.691 -0.563,2.242 -2.212,2.182 C 16.1,15.786 13.28,15.859 10.462,15.859 Z"
         transform="translate(2.832,5.853)"
         fill="#00daac" />
      <path
         id="Path_998-7"
         data-name="Path 998"
         d="m 13.221,0 a 52.738,52.738 0 0 1 11.015,1.185 c 1.749,0.422 2.883,1.846 2.483,3.271 -0.492,1.752 -1.876,1.6 -3.263,1.382 A 64.094,64.094 0 0 0 3.276,5.856 C 1.886,6.081 0.5,6.17 0.073,4.384 -0.29,2.871 0.732,1.62 2.444,1.184 A 51.153,51.153 0 0 1 13.221,0 Z"
         fill="#00daac" />
      <path
         id="Path_999-7"
         data-name="Path 999"
         d="m 3.283,10.21 c 0.065,0.761 0.135,1.606 -0.84,1.762 C 1.468,12.128 1.272,11.334 1.172,10.556 0.8,7.638 0.416,4.721 0.048,1.8 -0.047,1.05 -0.1,0.188 0.859,0.023 c 1.035,-0.179 1.1,0.7 1.2,1.447 q 0.608,4.371 1.224,8.74 z"
         transform="translate(23.465,7.131)"
         fill="#00daac" />
      <path
         id="Path_1000-7"
         data-name="Path 1000"
         d="M 0.042,10.069 C 0.458,7.1 0.875,4.184 1.27,1.268 c 0.089,-0.651 0.3,-1.3 1.013,-1.267 0.8,0.036 1.091,0.707 1,1.46 Q 2.695,6.241 2.066,11.014 C 1.975,11.714 1.555,12.162 0.834,11.991 -0.3,11.722 0.059,10.779 0.042,10.069 Z"
         transform="translate(0.037,7.342)"
         fill="#00daac" />
    </g>
    <g
       id="Group_427"
       data-name="Group 427"
       transform="rotate(90,35.102,304.461)">
      <path
         id="Path_997-8"
         data-name="Path 997"
         d="m 10.462,15.859 c -2.885,0 -5.77,-0.036 -8.654,0.016 -1.3,0.023 -1.925,-0.512 -1.791,-1.782 C 0.471,9.828 0.968,5.568 1.435,1.3 1.525,0.478 2.144,0.411 2.743,0.356 A 87.143,87.143 0 0 1 18.413,0.35 c 0.722,0.064 1.241,0.287 1.335,1.167 0.432,4.065 0.908,8.127 1.379,12.188 0.2,1.691 -0.563,2.242 -2.212,2.182 C 16.1,15.786 13.28,15.859 10.462,15.859 Z"
         transform="translate(2.832,5.853)"
         fill="#00daac" />
      <path
         id="Path_998-8"
         data-name="Path 998"
         d="m 13.221,0 a 52.738,52.738 0 0 1 11.015,1.185 c 1.749,0.422 2.883,1.846 2.483,3.271 -0.492,1.752 -1.876,1.6 -3.263,1.382 A 64.094,64.094 0 0 0 3.276,5.856 C 1.886,6.081 0.5,6.17 0.073,4.384 -0.29,2.871 0.732,1.62 2.444,1.184 A 51.153,51.153 0 0 1 13.221,0 Z"
         fill="#00daac" />
      <path
         id="Path_999-8"
         data-name="Path 999"
         d="m 3.283,10.21 c 0.065,0.761 0.135,1.606 -0.84,1.762 C 1.468,12.128 1.272,11.334 1.172,10.556 0.8,7.638 0.416,4.721 0.048,1.8 -0.047,1.05 -0.1,0.188 0.859,0.023 c 1.035,-0.179 1.1,0.7 1.2,1.447 q 0.608,4.371 1.224,8.74 z"
         transform="translate(23.465,7.131)"
         fill="#00daac" />
      <path
         id="Path_1000-8"
         data-name="Path 1000"
         d="M 0.042,10.069 C 0.458,7.1 0.875,4.184 1.27,1.268 c 0.089,-0.651 0.3,-1.3 1.013,-1.267 0.8,0.036 1.091,0.707 1,1.46 Q 2.695,6.241 2.066,11.014 C 1.975,11.714 1.555,12.162 0.834,11.991 -0.3,11.722 0.059,10.779 0.042,10.069 Z"
         transform="translate(0.037,7.342)"
         fill="#00daac" />
    </g>
    <rect
       id="Rectangle_224"
       data-name="Rectangle 224"
       width="37"
       height="68"
       rx="12"
       transform="translate(275,230)"
       fill="#00daac"
       x="0"
       y="0" />
  </g>
  <g
     id="Meja_2_kursi"
     transform="translate(-16,-91)">
    <g
       id="Group_432"
       data-name="Group 432"
       transform="rotate(-90,297.1835,50.0445)">
      <path
         id="Path_997-9"
         data-name="Path 997"
         d="m 10.462,15.859 c -2.885,0 -5.77,-0.036 -8.654,0.016 -1.3,0.023 -1.925,-0.512 -1.791,-1.782 C 0.471,9.828 0.968,5.568 1.435,1.3 1.525,0.478 2.144,0.411 2.743,0.356 A 87.143,87.143 0 0 1 18.413,0.35 c 0.722,0.064 1.241,0.287 1.335,1.167 0.432,4.065 0.908,8.127 1.379,12.188 0.2,1.691 -0.563,2.242 -2.212,2.182 C 16.1,15.786 13.28,15.859 10.462,15.859 Z"
         transform="translate(2.832,5.853)"
         fill="url(#linear-gradient)" />
      <path
         id="Path_998-9"
         data-name="Path 998"
         d="m 13.221,0 a 52.738,52.738 0 0 1 11.015,1.185 c 1.749,0.422 2.883,1.846 2.483,3.271 -0.492,1.752 -1.876,1.6 -3.263,1.382 A 64.094,64.094 0 0 0 3.276,5.856 C 1.886,6.081 0.5,6.17 0.073,4.384 -0.29,2.871 0.732,1.62 2.444,1.184 A 51.153,51.153 0 0 1 13.221,0 Z"
         fill="url(#linear-gradient)" />
      <path
         id="Path_999-9"
         data-name="Path 999"
         d="m 3.283,10.21 c 0.065,0.761 0.135,1.606 -0.84,1.762 C 1.468,12.128 1.272,11.334 1.172,10.556 0.8,7.638 0.416,4.721 0.048,1.8 -0.047,1.05 -0.1,0.188 0.859,0.023 c 1.035,-0.179 1.1,0.7 1.2,1.447 q 0.608,4.371 1.224,8.74 z"
         transform="translate(23.465,7.131)"
         fill="url(#linear-gradient)" />
      <path
         id="Path_1000-9"
         data-name="Path 1000"
         d="M 0.041,10.069 C 0.458,7.1 0.875,4.184 1.27,1.268 c 0.089,-0.651 0.3,-1.3 1.013,-1.267 0.8,0.036 1.091,0.707 1,1.46 Q 2.695,6.241 2.066,11.014 C 1.975,11.714 1.555,12.162 0.834,11.991 -0.3,11.722 0.059,10.779 0.041,10.069 Z"
         transform="translate(0.037,7.342)"
         fill="url(#linear-gradient)" />
    </g>
    <g
       id="Group_431"
       data-name="Group 431"
       transform="rotate(90,9.567,329.996)">
      <path
         id="Path_997-10"
         data-name="Path 997"
         d="m 10.462,15.859 c -2.885,0 -5.77,-0.036 -8.654,0.016 -1.3,0.023 -1.925,-0.512 -1.791,-1.782 C 0.471,9.828 0.968,5.568 1.435,1.3 1.525,0.478 2.144,0.411 2.743,0.356 A 87.143,87.143 0 0 1 18.413,0.35 c 0.722,0.064 1.241,0.287 1.335,1.167 0.432,4.065 0.908,8.127 1.379,12.188 0.2,1.691 -0.563,2.242 -2.212,2.182 C 16.1,15.786 13.28,15.859 10.462,15.859 Z"
         transform="translate(2.832,5.853)"
         fill="url(#linear-gradient)" />
      <path
         id="Path_998-10"
         data-name="Path 998"
         d="m 13.221,0 a 52.738,52.738 0 0 1 11.015,1.185 c 1.749,0.422 2.883,1.846 2.483,3.271 -0.492,1.752 -1.876,1.6 -3.263,1.382 A 64.094,64.094 0 0 0 3.276,5.856 C 1.886,6.081 0.5,6.17 0.073,4.384 -0.29,2.871 0.732,1.62 2.444,1.184 A 51.153,51.153 0 0 1 13.221,0 Z"
         fill="url(#linear-gradient)" />
      <path
         id="Path_999-10"
         data-name="Path 999"
         d="m 3.283,10.21 c 0.065,0.761 0.135,1.606 -0.84,1.762 C 1.468,12.128 1.272,11.334 1.172,10.556 0.8,7.638 0.416,4.721 0.048,1.8 -0.047,1.05 -0.1,0.188 0.859,0.023 c 1.035,-0.179 1.1,0.7 1.2,1.447 q 0.608,4.371 1.224,8.74 z"
         transform="translate(23.465,7.131)"
         fill="url(#linear-gradient)" />
      <path
         id="Path_1000-10"
         data-name="Path 1000"
         d="M 0.041,10.069 C 0.458,7.1 0.875,4.184 1.27,1.268 c 0.089,-0.651 0.3,-1.3 1.013,-1.267 0.8,0.036 1.091,0.707 1,1.46 Q 2.695,6.241 2.066,11.014 C 1.975,11.714 1.555,12.162 0.834,11.991 -0.3,11.722 0.059,10.779 0.041,10.069 Z"
         transform="translate(0.037,7.342)"
         fill="url(#linear-gradient)" />
    </g>
    <rect
       id="Rectangle_225"
       data-name="Rectangle 225"
       width="37"
       height="36"
       rx="12"
       transform="translate(275,316)"
       fill="url(#linear-gradient)"
       x="0"
       y="0" />
  </g>
  <g
     id="Meja_6_kursi"
     transform="translate(-16,-91)">
    <g
       id="Group_417"
       data-name="Group 417"
       transform="rotate(-90,142.8895,113.7505)">
      <path
         id="Path_997-11"
         data-name="Path 997"
         d="m 10.462,15.859 c -2.885,0 -5.77,-0.036 -8.654,0.016 -1.3,0.023 -1.925,-0.512 -1.791,-1.782 C 0.471,9.828 0.968,5.568 1.435,1.3 1.525,0.478 2.144,0.411 2.743,0.356 A 87.143,87.143 0 0 1 18.413,0.35 c 0.722,0.064 1.241,0.287 1.335,1.167 0.432,4.065 0.908,8.127 1.379,12.188 0.2,1.691 -0.563,2.242 -2.212,2.182 C 16.1,15.786 13.28,15.859 10.462,15.859 Z"
         transform="translate(2.832,5.853)"
         fill="url(#linear-gradient)" />
      <path
         id="Path_998-11"
         data-name="Path 998"
         d="m 13.221,0 a 52.738,52.738 0 0 1 11.015,1.185 c 1.749,0.422 2.883,1.846 2.483,3.271 -0.492,1.752 -1.876,1.6 -3.263,1.382 A 64.094,64.094 0 0 0 3.276,5.856 C 1.886,6.081 0.5,6.17 0.073,4.384 -0.29,2.871 0.732,1.62 2.444,1.184 A 51.153,51.153 0 0 1 13.221,0 Z"
         fill="url(#linear-gradient)" />
      <path
         id="Path_999-11"
         data-name="Path 999"
         d="m 3.283,10.21 c 0.065,0.761 0.135,1.606 -0.84,1.762 C 1.468,12.128 1.272,11.334 1.172,10.556 0.8,7.638 0.416,4.721 0.048,1.8 -0.047,1.05 -0.1,0.188 0.859,0.023 c 1.035,-0.179 1.1,0.7 1.2,1.447 q 0.608,4.371 1.224,8.74 z"
         transform="translate(23.465,7.131)"
         fill="url(#linear-gradient)" />
      <path
         id="Path_1000-11"
         data-name="Path 1000"
         d="M 0.041,10.069 C 0.458,7.1 0.875,4.184 1.27,1.268 c 0.089,-0.651 0.3,-1.3 1.013,-1.267 0.8,0.036 1.091,0.707 1,1.46 Q 2.695,6.241 2.066,11.014 C 1.975,11.714 1.555,12.162 0.834,11.991 -0.3,11.722 0.059,10.779 0.041,10.069 Z"
         transform="translate(0.037,7.342)"
         fill="url(#linear-gradient)" />
    </g>
    <g
       id="Group_418"
       data-name="Group 418"
       transform="rotate(-90,185.1835,156.0445)">
      <path
         id="Path_997-12"
         data-name="Path 997"
         d="m 10.462,15.859 c -2.885,0 -5.77,-0.036 -8.654,0.016 -1.3,0.023 -1.925,-0.512 -1.791,-1.782 C 0.471,9.828 0.968,5.568 1.435,1.3 1.525,0.478 2.144,0.411 2.743,0.356 A 87.143,87.143 0 0 1 18.413,0.35 c 0.722,0.064 1.241,0.287 1.335,1.167 0.432,4.065 0.908,8.127 1.379,12.188 0.2,1.691 -0.563,2.242 -2.212,2.182 C 16.1,15.786 13.28,15.859 10.462,15.859 Z"
         transform="translate(2.832,5.853)"
         fill="url(#linear-gradient)" />
      <path
         id="Path_998-12"
         data-name="Path 998"
         d="m 13.221,0 a 52.738,52.738 0 0 1 11.015,1.185 c 1.749,0.422 2.883,1.846 2.483,3.271 -0.492,1.752 -1.876,1.6 -3.263,1.382 A 64.094,64.094 0 0 0 3.276,5.856 C 1.886,6.081 0.5,6.17 0.073,4.384 -0.29,2.871 0.732,1.62 2.444,1.184 A 51.153,51.153 0 0 1 13.221,0 Z"
         fill="url(#linear-gradient)" />
      <path
         id="Path_999-12"
         data-name="Path 999"
         d="m 3.283,10.21 c 0.065,0.761 0.135,1.606 -0.84,1.762 C 1.468,12.128 1.272,11.334 1.172,10.556 0.8,7.638 0.416,4.721 0.048,1.8 -0.047,1.05 -0.1,0.188 0.859,0.023 c 1.035,-0.179 1.1,0.7 1.2,1.447 q 0.608,4.371 1.224,8.74 z"
         transform="translate(23.465,7.131)"
         fill="url(#linear-gradient)" />
      <path
         id="Path_1000-12"
         data-name="Path 1000"
         d="M 0.041,10.069 C 0.458,7.1 0.875,4.184 1.27,1.268 c 0.089,-0.651 0.3,-1.3 1.013,-1.267 0.8,0.036 1.091,0.707 1,1.46 Q 2.695,6.241 2.066,11.014 C 1.975,11.714 1.555,12.162 0.834,11.991 -0.3,11.722 0.059,10.779 0.041,10.069 Z"
         transform="translate(0.037,7.342)"
         fill="url(#linear-gradient)" />
    </g>
    <g
       id="Group_420"
       data-name="Group 420"
       transform="rotate(-90,163.6835,134.5445)">
      <path
         id="Path_997-13"
         data-name="Path 997"
         d="m 10.462,15.859 c -2.885,0 -5.77,-0.036 -8.654,0.016 -1.3,0.023 -1.925,-0.512 -1.791,-1.782 C 0.471,9.828 0.968,5.568 1.435,1.3 1.525,0.478 2.144,0.411 2.743,0.356 A 87.143,87.143 0 0 1 18.413,0.35 c 0.722,0.064 1.241,0.287 1.335,1.167 0.432,4.065 0.908,8.127 1.379,12.188 0.2,1.691 -0.563,2.242 -2.212,2.182 C 16.1,15.786 13.28,15.859 10.462,15.859 Z"
         transform="translate(2.832,5.853)"
         fill="url(#linear-gradient)" />
      <path
         id="Path_998-13"
         data-name="Path 998"
         d="m 13.221,0 a 52.738,52.738 0 0 1 11.015,1.185 c 1.749,0.422 2.883,1.846 2.483,3.271 -0.492,1.752 -1.876,1.6 -3.263,1.382 A 64.094,64.094 0 0 0 3.276,5.856 C 1.886,6.081 0.5,6.17 0.073,4.384 -0.29,2.871 0.732,1.62 2.444,1.184 A 51.153,51.153 0 0 1 13.221,0 Z"
         fill="url(#linear-gradient)" />
      <path
         id="Path_999-13"
         data-name="Path 999"
         d="m 3.283,10.21 c 0.065,0.761 0.135,1.606 -0.84,1.762 C 1.468,12.128 1.272,11.334 1.172,10.556 0.8,7.638 0.416,4.721 0.048,1.8 -0.047,1.05 -0.1,0.188 0.859,0.023 c 1.035,-0.179 1.1,0.7 1.2,1.447 q 0.608,4.371 1.224,8.74 z"
         transform="translate(23.465,7.131)"
         fill="url(#linear-gradient)" />
      <path
         id="Path_1000-13"
         data-name="Path 1000"
         d="M 0.041,10.069 C 0.458,7.1 0.875,4.184 1.27,1.268 c 0.089,-0.651 0.3,-1.3 1.013,-1.267 0.8,0.036 1.091,0.707 1,1.46 Q 2.695,6.241 2.066,11.014 C 1.975,11.714 1.555,12.162 0.834,11.991 -0.3,11.722 0.059,10.779 0.041,10.069 Z"
         transform="translate(0.037,7.342)"
         fill="url(#linear-gradient)" />
    </g>
    <g
       id="Group_416"
       data-name="Group 416"
       transform="rotate(90,-54.139,175.702)">
      <path
         id="Path_997-14"
         data-name="Path 997"
         d="m 10.462,15.859 c -2.885,0 -5.77,-0.036 -8.654,0.016 -1.3,0.023 -1.925,-0.512 -1.791,-1.782 C 0.471,9.828 0.968,5.568 1.435,1.3 1.525,0.478 2.144,0.411 2.743,0.356 A 87.143,87.143 0 0 1 18.413,0.35 c 0.722,0.064 1.241,0.287 1.335,1.167 0.432,4.065 0.908,8.127 1.379,12.188 0.2,1.691 -0.563,2.242 -2.212,2.182 C 16.1,15.786 13.28,15.859 10.462,15.859 Z"
         transform="translate(2.832,5.853)"
         fill="url(#linear-gradient)" />
      <path
         id="Path_998-14"
         data-name="Path 998"
         d="m 13.221,0 a 52.738,52.738 0 0 1 11.015,1.185 c 1.749,0.422 2.883,1.846 2.483,3.271 -0.492,1.752 -1.876,1.6 -3.263,1.382 A 64.094,64.094 0 0 0 3.276,5.856 C 1.886,6.081 0.5,6.17 0.073,4.384 -0.29,2.871 0.732,1.62 2.444,1.184 A 51.153,51.153 0 0 1 13.221,0 Z"
         fill="url(#linear-gradient)" />
      <path
         id="Path_999-14"
         data-name="Path 999"
         d="m 3.283,10.21 c 0.065,0.761 0.135,1.606 -0.84,1.762 C 1.468,12.128 1.272,11.334 1.172,10.556 0.8,7.638 0.416,4.721 0.048,1.8 -0.047,1.05 -0.1,0.188 0.859,0.023 c 1.035,-0.179 1.1,0.7 1.2,1.447 q 0.608,4.371 1.224,8.74 z"
         transform="translate(23.465,7.131)"
         fill="url(#linear-gradient)" />
      <path
         id="Path_1000-14"
         data-name="Path 1000"
         d="M 0.041,10.069 C 0.458,7.1 0.875,4.184 1.27,1.268 c 0.089,-0.651 0.3,-1.3 1.013,-1.267 0.8,0.036 1.091,0.707 1,1.46 Q 2.695,6.241 2.066,11.014 C 1.975,11.714 1.555,12.162 0.834,11.991 -0.3,11.722 0.059,10.779 0.041,10.069 Z"
         transform="translate(0.037,7.342)"
         fill="url(#linear-gradient)" />
    </g>
    <g
       id="Group_415"
       data-name="Group 415"
       transform="rotate(90,-96.433,217.996)">
      <path
         id="Path_997-15"
         data-name="Path 997"
         d="m 10.462,15.859 c -2.885,0 -5.77,-0.036 -8.654,0.016 -1.3,0.023 -1.925,-0.512 -1.791,-1.782 C 0.471,9.828 0.968,5.568 1.435,1.3 1.525,0.478 2.144,0.411 2.743,0.356 A 87.143,87.143 0 0 1 18.413,0.35 c 0.722,0.064 1.241,0.287 1.335,1.167 0.432,4.065 0.908,8.127 1.379,12.188 0.2,1.691 -0.563,2.242 -2.212,2.182 C 16.1,15.786 13.28,15.859 10.462,15.859 Z"
         transform="translate(2.832,5.853)"
         fill="url(#linear-gradient)" />
      <path
         id="Path_998-15"
         data-name="Path 998"
         d="m 13.221,0 a 52.738,52.738 0 0 1 11.015,1.185 c 1.749,0.422 2.883,1.846 2.483,3.271 -0.492,1.752 -1.876,1.6 -3.263,1.382 A 64.094,64.094 0 0 0 3.276,5.856 C 1.886,6.081 0.5,6.17 0.073,4.384 -0.29,2.871 0.732,1.62 2.444,1.184 A 51.153,51.153 0 0 1 13.221,0 Z"
         fill="url(#linear-gradient)" />
      <path
         id="Path_999-15"
         data-name="Path 999"
         d="m 3.283,10.21 c 0.065,0.761 0.135,1.606 -0.84,1.762 C 1.468,12.128 1.272,11.334 1.172,10.556 0.8,7.638 0.416,4.721 0.048,1.8 -0.047,1.05 -0.1,0.188 0.859,0.023 c 1.035,-0.179 1.1,0.7 1.2,1.447 q 0.608,4.371 1.224,8.74 z"
         transform="translate(23.465,7.131)"
         fill="url(#linear-gradient)" />
      <path
         id="Path_1000-15"
         data-name="Path 1000"
         d="M 0.041,10.069 C 0.458,7.1 0.875,4.184 1.27,1.268 c 0.089,-0.651 0.3,-1.3 1.013,-1.267 0.8,0.036 1.091,0.707 1,1.46 Q 2.695,6.241 2.066,11.014 C 1.975,11.714 1.555,12.162 0.834,11.991 -0.3,11.722 0.059,10.779 0.041,10.069 Z"
         transform="translate(0.037,7.342)"
         fill="url(#linear-gradient)" />
    </g>
    <g
       id="Group_419"
       data-name="Group 419"
       transform="rotate(90,-74.933,196.496)">
      <path
         id="Path_997-16"
         data-name="Path 997"
         d="m 10.462,15.859 c -2.885,0 -5.77,-0.036 -8.654,0.016 -1.3,0.023 -1.925,-0.512 -1.791,-1.782 C 0.471,9.828 0.968,5.568 1.435,1.3 1.525,0.478 2.144,0.411 2.743,0.356 A 87.143,87.143 0 0 1 18.413,0.35 c 0.722,0.064 1.241,0.287 1.335,1.167 0.432,4.065 0.908,8.127 1.379,12.188 0.2,1.691 -0.563,2.242 -2.212,2.182 C 16.1,15.786 13.28,15.859 10.462,15.859 Z"
         transform="translate(2.832,5.853)"
         fill="url(#linear-gradient)" />
      <path
         id="Path_998-16"
         data-name="Path 998"
         d="m 13.221,0 a 52.738,52.738 0 0 1 11.015,1.185 c 1.749,0.422 2.883,1.846 2.483,3.271 -0.492,1.752 -1.876,1.6 -3.263,1.382 A 64.094,64.094 0 0 0 3.276,5.856 C 1.886,6.081 0.5,6.17 0.073,4.384 -0.29,2.871 0.732,1.62 2.444,1.184 A 51.153,51.153 0 0 1 13.221,0 Z"
         fill="url(#linear-gradient)" />
      <path
         id="Path_999-16"
         data-name="Path 999"
         d="m 3.283,10.21 c 0.065,0.761 0.135,1.606 -0.84,1.762 C 1.468,12.128 1.272,11.334 1.172,10.556 0.8,7.638 0.416,4.721 0.048,1.8 -0.047,1.05 -0.1,0.188 0.859,0.023 c 1.035,-0.179 1.1,0.7 1.2,1.447 q 0.608,4.371 1.224,8.74 z"
         transform="translate(23.465,7.131)"
         fill="url(#linear-gradient)" />
      <path
         id="Path_1000-16"
         data-name="Path 1000"
         d="M 0.041,10.069 C 0.458,7.1 0.875,4.184 1.27,1.268 c 0.089,-0.651 0.3,-1.3 1.013,-1.267 0.8,0.036 1.091,0.707 1,1.46 Q 2.695,6.241 2.066,11.014 C 1.975,11.714 1.555,12.162 0.834,11.991 -0.3,11.722 0.059,10.779 0.041,10.069 Z"
         transform="translate(0.037,7.342)"
         fill="url(#linear-gradient)" />
    </g>
    <rect
       id="Rectangle_221"
       data-name="Rectangle 221"
       width="37"
       height="120"
       rx="12"
       transform="translate(57,227)"
       fill="url(#linear-gradient)"
       x="0"
       y="0" />
  </g>
  <text
     id="Pintu_masuk"
     data-name="Pintu masuk"
     transform="translate(133,11)"
     fill="#767676"
     font-size="14px"
     font-family="Helvetica"><tspan
       x="0"
       y="0"
       id="tspan1284">Pintu Masuk</tspan></text>
  <text
     id="Dapur"
     transform="translate(126,413)"
     fill="#767676"
     font-size="14px"
     font-family="Helvetica"><tspan
       x="0"
       y="0"
       id="tspan1287">Dapur</tspan></text>
  <rect
     id="Rectangle_227"
     data-name="Rectangle 227"
     width="80"
     height="9"
     transform="translate(132,14)"
     fill="#f9f9ff"
     x="0"
     y="0" />
  <rect
     id="Rectangle_229"
     data-name="Rectangle 229"
     width="46"
     height="9"
     transform="translate(126,448)"
     fill="#f9f9ff"
     x="0"
     y="0" />
  <g
     id="wc"
     transform="translate(37.884,353.884)">
    <g
       id="Group_436"
       data-name="Group 436">
      <g
         id="Group_435"
         data-name="Group 435">
        <path
           id="Path_1001"
           data-name="Path 1001"
           d="M 22.857,0 H 5.376 A 5.382,5.382 0 0 0 0,5.376 v 17.48 a 5.382,5.382 0 0 0 5.376,5.376 h 17.48 a 5.382,5.382 0 0 0 5.376,-5.376 V 5.376 A 5.382,5.382 0 0 0 22.857,0 Z m 4.549,22.857 a 4.554,4.554 0 0 1 -4.549,4.549 H 5.376 A 4.554,4.554 0 0 1 0.827,22.857 V 5.376 A 4.554,4.554 0 0 1 5.376,0.827 h 17.48 a 4.554,4.554 0 0 1 4.549,4.549 z"
           fill="#767676" />
      </g>
    </g>
    <g
       id="Group_438"
       data-name="Group 438"
       transform="translate(6.231,3.033)">
      <g
         id="Group_437"
         data-name="Group 437">
        <path
           id="Path_1002"
           data-name="Path 1002"
           d="m 115.619,55 a 2.619,2.619 0 1 0 2.619,2.619 A 2.622,2.622 0 0 0 115.619,55 Z m 0,4.411 a 1.792,1.792 0 1 1 1.792,-1.792 1.794,1.794 0 0 1 -1.792,1.792 z"
           transform="translate(-113,-55)"
           fill="#767676" />
      </g>
    </g>
    <g
       id="Group_440"
       data-name="Group 440"
       transform="translate(5.128,9.098)">
      <g
         id="Group_439"
         data-name="Group 439">
        <path
           id="Path_1003"
           data-name="Path 1003"
           d="M 98.376,165 H 95.068 A 2.07,2.07 0 0 0 93,167.068 v 12.517 a 1.5165,1.5165 0 0 0 3.033,0 v -2.757 a 0.414,0.414 0 0 0 -0.827,0 v 2.757 a 0.6895,0.6895 0 0 1 -1.379,0 v -12.517 a 1.242,1.242 0 0 1 1.241,-1.241 h 3.309 a 1.242,1.242 0 0 1 1.241,1.241 v 12.517 a 0.6895,0.6895 0 0 1 -1.379,0 v -7.169 a 0.414,0.414 0 0 0 -0.414,-0.414 h -2.206 a 0.414,0.414 0 0 0 -0.414,0.414 v 2.757 a 0.414,0.414 0 1 0 0.827,0 v -2.343 h 1.379 v 6.755 a 1.5165,1.5165 0 0 0 3.033,0 V 167.068 A 2.07,2.07 0 0 0 98.376,165 Z"
           transform="translate(-93,-165)"
           fill="#767676" />
      </g>
    </g>
    <g
       id="Group_442"
       data-name="Group 442"
       transform="translate(16.156,3.033)">
      <g
         id="Group_441"
         data-name="Group 441">
        <path
           id="Path_1004"
           data-name="Path 1004"
           d="m 295.6,55 a 2.619,2.619 0 1 0 2.619,2.619 A 2.622,2.622 0 0 0 295.6,55 Z m 0,4.411 a 1.792,1.792 0 1 1 1.792,-1.792 1.794,1.794 0 0 1 -1.792,1.792 z"
           transform="translate(-292.98,-55)"
           fill="#767676" />
      </g>
    </g>
    <g
       id="Group_444"
       data-name="Group 444"
       transform="translate(13.951,9.098)">
      <g
         id="Group_443"
         data-name="Group 443">
        <path
           id="Path_1005"
           data-name="Path 1005"
           d="m 262.7,174.536 -1.689,-7.892 A 2.078,2.078 0 0 0 258.985,165 h -2.262 a 2.077,2.077 0 0 0 -2.023,1.642 l -1.689,7.894 a 0.414,0.414 0 0 0 0.4,0.5 h 1.24 v 4.687 a 1.379,1.379 0 1 0 2.757,0 v -4.687 h 0.827 v 4.687 a 1.379,1.379 0 0 0 2.757,0 v -4.687 h 1.3 a 0.414,0.414 0 0 0 0.4,-0.5 z m -2.115,-0.327 a 0.414,0.414 0 0 0 -0.414,0.414 v 5.1 a 0.551,0.551 0 1 1 -1.1,0 v -5.1 a 0.414,0.414 0 0 0 -0.414,-0.414 H 257 a 0.414,0.414 0 0 0 -0.414,0.414 v 5.1 a 0.551,0.551 0 1 1 -1.1,0 v -5.1 a 0.414,0.414 0 0 0 -0.414,-0.414 h -1.142 l 1.582,-7.395 a 1.247,1.247 0 0 1 1.214,-0.987 h 2.262 a 1.247,1.247 0 0 1 1.214,0.988 l 1.582,7.393 z"
           transform="translate(-253.001,-165)"
           fill="#767676" />
      </g>
    </g>
  </g>
  <g
     id="download_1_"
     data-name="download (1)"
     transform="translate(90.671,426.385)">
    <path
       id="Path_1006"
       data-name="Path 1006"
       d="M 61.952,6.62 58.14,10.432 V 0.234 a 0.234,0.234 0 0 0 -0.468,0 v 10.2 L 53.861,6.62 A 0.23405234,0.23405234 0 0 0 53.53,6.951 l 4.212,4.212 a 0.234,0.234 0 0 0 0.331,0 v 0 L 62.284,6.95 A 0.23405234,0.23405234 0 0 0 61.953,6.619 Z"
       transform="translate(-0.021)"
       fill="#767676" />
    <path
       id="Path_1007"
       data-name="Path 1007"
       d="M 57.886,303.484 A 0.234,0.234 0 0 1 57.72,303.416 L 53.508,299.2 a 0.23405234,0.23405234 0 0 1 0.331,-0.331 l 4.046,4.046 4.046,-4.046 a 0.23405234,0.23405234 0 0 1 0.331,0.331 l -4.212,4.212 a 0.234,0.234 0 0 1 -0.164,0.072 z"
       transform="translate(0,-292.253)"
       fill="#767676" />
    <path
       id="Path_1008"
       data-name="Path 1008"
       d="m 245.556,11.231 a 0.234,0.234 0 0 1 -0.234,-0.234 V 0.234 a 0.234,0.234 0 1 1 0.468,0 V 11 a 0.234,0.234 0 0 1 -0.234,0.231 z"
       transform="translate(-187.67)"
       fill="#767676" />
  </g>
  <g
     id="download_1_2"
     data-name="download (1)"
     transform="rotate(90,-143.471,166.643)">
    <path
       id="Path_1006-2"
       data-name="Path 1006"
       d="M 61.952,6.62 58.14,10.432 V 0.234 a 0.234,0.234 0 0 0 -0.468,0 v 10.2 L 53.861,6.62 A 0.23405234,0.23405234 0 0 0 53.53,6.951 l 4.212,4.212 a 0.234,0.234 0 0 0 0.331,0 v 0 L 62.284,6.95 A 0.23405234,0.23405234 0 0 0 61.953,6.619 Z"
       transform="translate(-0.021)"
       fill="#767676" />
    <path
       id="Path_1007-2"
       data-name="Path 1007"
       d="M 57.886,303.484 A 0.234,0.234 0 0 1 57.72,303.416 L 53.508,299.2 a 0.23405234,0.23405234 0 0 1 0.331,-0.331 l 4.046,4.046 4.046,-4.046 a 0.23405234,0.23405234 0 0 1 0.331,0.331 l -4.212,4.212 a 0.234,0.234 0 0 1 -0.164,0.072 z"
       transform="translate(0,-292.253)"
       fill="#767676" />
    <path
       id="Path_1008-2"
       data-name="Path 1008"
       d="m 245.556,11.231 a 0.234,0.234 0 0 1 -0.234,-0.234 V 0.234 a 0.234,0.234 0 1 1 0.468,0 V 11 a 0.234,0.234 0 0 1 -0.234,0.231 z"
       transform="translate(-187.67)"
       fill="#767676" />
  </g>
  <g
     id="Meja_bundar"
     transform="translate(23.556,-70.491)">
    <g
       id="Group_448"
       data-name="Group 448"
       transform="matrix(0.966,0.259,-0.259,0.966,255.006,403.271)">
      <path
         id="Path_997-17"
         data-name="Path 997"
         d="m 8.2,12.427 c -2.261,0 -4.521,-0.028 -6.781,0.013 -1.016,0.018 -1.509,-0.4 -1.4,-1.4 C 0.369,7.7 0.758,4.363 1.124,1.022 1.2,0.375 1.68,0.322 2.149,0.279 a 68.285,68.285 0 0 1 12.279,0 c 0.566,0.05 0.973,0.225 1.046,0.914 0.338,3.186 0.712,6.368 1.081,9.55 0.154,1.325 -0.441,1.756 -1.733,1.71 C 12.616,12.37 10.406,12.427 8.2,12.427 Z"
         transform="translate(2.219,4.586)"
         fill="url(#linear-gradient)" />
      <path
         id="Path_998-17"
         data-name="Path 998"
         d="m 10.36,0 a 41.325,41.325 0 0 1 8.631,0.929 c 1.371,0.331 2.259,1.447 1.945,2.563 -0.386,1.373 -1.47,1.252 -2.557,1.083 A 50.224,50.224 0 0 0 2.566,4.589 C 1.478,4.765 0.393,4.835 0.057,3.435 -0.227,2.25 0.574,1.269 1.915,0.928 A 40.084,40.084 0 0 1 10.36,0 Z"
         fill="url(#linear-gradient)" />
      <path
         id="Path_999-17"
         data-name="Path 999"
         d="M 2.573,8 C 2.624,8.6 2.678,9.258 1.914,9.381 1.15,9.504 0.996,8.881 0.914,8.271 0.627,5.985 0.326,3.7 0.038,1.412 -0.037,0.822 -0.075,0.147 0.673,0.018 1.484,-0.122 1.534,0.569 1.615,1.152 Q 2.09,4.577 2.573,8 Z"
         transform="translate(18.387,5.588)"
         fill="url(#linear-gradient)" />
      <path
         id="Path_1000-17"
         data-name="Path 1000"
         d="M 0.033,7.89 C 0.359,5.562 0.686,3.279 1,0.994 1.069,0.484 1.237,-0.024 1.793,0.001 2.419,0.029 2.648,0.555 2.576,1.145 Q 2.115,4.89 1.622,8.631 C 1.551,9.176 1.222,9.531 0.656,9.396 -0.237,9.185 0.046,8.447 0.033,7.89 Z"
         transform="translate(0.029,5.753)"
         fill="url(#linear-gradient)" />
    </g>
    <g
       id="Group_447"
       data-name="Group 447"
       transform="rotate(-90,333.1125,131.9735)">
      <path
         id="Path_997-18"
         data-name="Path 997"
         d="m 8.2,12.427 c -2.261,0 -4.521,-0.028 -6.781,0.013 -1.016,0.018 -1.509,-0.4 -1.4,-1.4 C 0.369,7.7 0.758,4.363 1.124,1.022 1.2,0.375 1.68,0.322 2.149,0.279 a 68.285,68.285 0 0 1 12.279,0 c 0.566,0.05 0.973,0.225 1.046,0.914 0.338,3.186 0.712,6.368 1.081,9.55 0.154,1.325 -0.441,1.756 -1.733,1.71 C 12.616,12.37 10.406,12.427 8.2,12.427 Z"
         transform="translate(2.219,4.586)"
         fill="url(#linear-gradient)" />
      <path
         id="Path_998-18"
         data-name="Path 998"
         d="m 10.36,0 a 41.325,41.325 0 0 1 8.631,0.929 c 1.371,0.331 2.259,1.447 1.945,2.563 -0.386,1.373 -1.47,1.252 -2.557,1.083 A 50.224,50.224 0 0 0 2.566,4.589 C 1.478,4.765 0.393,4.835 0.057,3.435 -0.227,2.25 0.574,1.269 1.915,0.928 A 40.084,40.084 0 0 1 10.36,0 Z"
         fill="url(#linear-gradient)" />
      <path
         id="Path_999-18"
         data-name="Path 999"
         d="M 2.573,8 C 2.624,8.6 2.678,9.258 1.914,9.381 1.15,9.504 0.996,8.881 0.914,8.271 0.627,5.985 0.326,3.7 0.038,1.412 -0.037,0.822 -0.075,0.147 0.673,0.018 1.484,-0.122 1.534,0.569 1.615,1.152 Q 2.09,4.577 2.573,8 Z"
         transform="translate(18.387,5.588)"
         fill="url(#linear-gradient)" />
      <path
         id="Path_1000-18"
         data-name="Path 1000"
         d="M 0.033,7.89 C 0.359,5.562 0.686,3.279 1,0.994 1.069,0.484 1.237,-0.024 1.793,0.001 2.419,0.029 2.648,0.555 2.576,1.145 Q 2.115,4.89 1.622,8.631 C 1.551,9.176 1.222,9.531 0.656,9.396 -0.237,9.185 0.046,8.447 0.033,7.89 Z"
         transform="translate(0.029,5.753)"
         fill="url(#linear-gradient)" />
    </g>
    <g
       id="Group_450"
       data-name="Group 450"
       transform="matrix(0.695,-0.719,0.719,0.695,211.908,424.094)">
      <path
         id="Path_997-19"
         data-name="Path 997"
         d="m 8.2,12.427 c -2.261,0 -4.521,-0.028 -6.781,0.013 -1.016,0.018 -1.509,-0.4 -1.4,-1.4 C 0.369,7.7 0.758,4.363 1.124,1.022 1.2,0.375 1.68,0.322 2.149,0.279 a 68.285,68.285 0 0 1 12.279,0 c 0.566,0.05 0.973,0.225 1.046,0.914 0.338,3.186 0.712,6.368 1.081,9.55 0.154,1.325 -0.441,1.756 -1.733,1.71 C 12.616,12.37 10.406,12.427 8.2,12.427 Z"
         transform="translate(2.219,4.586)"
         fill="url(#linear-gradient)" />
      <path
         id="Path_998-19"
         data-name="Path 998"
         d="m 10.36,0 a 41.325,41.325 0 0 1 8.631,0.929 c 1.371,0.331 2.259,1.447 1.945,2.563 -0.386,1.373 -1.47,1.252 -2.557,1.083 A 50.224,50.224 0 0 0 2.566,4.589 C 1.478,4.765 0.393,4.835 0.057,3.435 -0.227,2.25 0.574,1.269 1.915,0.928 A 40.084,40.084 0 0 1 10.36,0 Z"
         fill="url(#linear-gradient)" />
      <path
         id="Path_999-19"
         data-name="Path 999"
         d="M 2.573,8 C 2.624,8.6 2.678,9.258 1.914,9.381 1.15,9.504 0.996,8.881 0.914,8.271 0.627,5.985 0.326,3.7 0.038,1.412 -0.037,0.822 -0.075,0.147 0.673,0.018 1.484,-0.122 1.534,0.569 1.615,1.152 Q 2.09,4.577 2.573,8 Z"
         transform="translate(18.387,5.588)"
         fill="url(#linear-gradient)" />
      <path
         id="Path_1000-19"
         data-name="Path 1000"
         d="M 0.033,7.89 C 0.359,5.562 0.686,3.279 1,0.994 1.069,0.484 1.237,-0.024 1.793,0.001 2.419,0.029 2.648,0.555 2.576,1.145 Q 2.115,4.89 1.622,8.631 C 1.551,9.176 1.222,9.531 0.656,9.396 -0.237,9.185 0.046,8.447 0.033,7.89 Z"
         transform="translate(0.029,5.753)"
         fill="url(#linear-gradient)" />
    </g>
    <g
       id="Group_445"
       data-name="Group 445"
       transform="matrix(0.407,0.914,-0.914,0.407,295.981,419.967)">
      <path
         id="Path_997-20"
         data-name="Path 997"
         d="m 8.2,12.427 c -2.261,0 -4.521,-0.028 -6.781,0.013 -1.016,0.018 -1.509,-0.4 -1.4,-1.4 C 0.369,7.7 0.758,4.363 1.124,1.022 1.2,0.375 1.68,0.322 2.149,0.279 a 68.285,68.285 0 0 1 12.279,0 c 0.566,0.05 0.973,0.225 1.046,0.914 0.338,3.186 0.712,6.368 1.081,9.55 0.154,1.325 -0.441,1.756 -1.733,1.71 C 12.616,12.37 10.406,12.427 8.2,12.427 Z"
         transform="translate(2.219,4.586)"
         fill="url(#linear-gradient)" />
      <path
         id="Path_998-20"
         data-name="Path 998"
         d="m 10.36,0 a 41.325,41.325 0 0 1 8.631,0.929 c 1.371,0.331 2.259,1.447 1.945,2.563 -0.386,1.373 -1.47,1.252 -2.557,1.083 A 50.224,50.224 0 0 0 2.566,4.589 C 1.478,4.765 0.393,4.835 0.057,3.435 -0.227,2.25 0.574,1.269 1.915,0.928 A 40.084,40.084 0 0 1 10.36,0 Z"
         fill="url(#linear-gradient)" />
      <path
         id="Path_999-20"
         data-name="Path 999"
         d="M 2.573,8 C 2.624,8.6 2.678,9.258 1.914,9.381 1.15,9.504 0.996,8.881 0.914,8.271 0.627,5.985 0.326,3.7 0.038,1.412 -0.037,0.822 -0.075,0.147 0.673,0.018 1.484,-0.122 1.534,0.569 1.615,1.152 Q 2.09,4.577 2.573,8 Z"
         transform="translate(18.387,5.588)"
         fill="url(#linear-gradient)" />
      <path
         id="Path_1000-20"
         data-name="Path 1000"
         d="M 0.033,7.89 C 0.359,5.562 0.686,3.279 1,0.994 1.069,0.484 1.237,-0.024 1.793,0.001 2.419,0.029 2.648,0.555 2.576,1.145 Q 2.115,4.89 1.622,8.631 C 1.551,9.176 1.222,9.531 0.656,9.396 -0.237,9.185 0.046,8.447 0.033,7.89 Z"
         transform="translate(0.029,5.753)"
         fill="url(#linear-gradient)" />
    </g>
    <g
       id="Group_446"
       data-name="Group 446"
       transform="matrix(-0.259,0.966,-0.966,-0.259,306.55,459.187)">
      <path
         id="Path_997-21"
         data-name="Path 997"
         d="m 8.2,12.427 c -2.261,0 -4.521,-0.028 -6.781,0.013 -1.016,0.018 -1.509,-0.4 -1.4,-1.4 C 0.369,7.7 0.758,4.363 1.124,1.022 1.2,0.375 1.68,0.322 2.149,0.279 a 68.285,68.285 0 0 1 12.279,0 c 0.566,0.05 0.973,0.225 1.046,0.914 0.338,3.186 0.712,6.368 1.081,9.55 0.154,1.325 -0.441,1.756 -1.733,1.71 C 12.616,12.37 10.406,12.427 8.2,12.427 Z"
         transform="translate(2.219,4.586)"
         fill="url(#linear-gradient)" />
      <path
         id="Path_998-21"
         data-name="Path 998"
         d="m 10.36,0 a 41.325,41.325 0 0 1 8.631,0.929 c 1.371,0.331 2.259,1.447 1.945,2.563 -0.386,1.373 -1.47,1.252 -2.557,1.083 A 50.224,50.224 0 0 0 2.566,4.589 C 1.478,4.765 0.393,4.835 0.057,3.435 -0.227,2.25 0.574,1.269 1.915,0.928 A 40.084,40.084 0 0 1 10.36,0 Z"
         fill="url(#linear-gradient)" />
      <path
         id="Path_999-21"
         data-name="Path 999"
         d="M 2.573,8 C 2.624,8.6 2.678,9.258 1.914,9.381 1.15,9.504 0.996,8.881 0.914,8.271 0.627,5.985 0.326,3.7 0.038,1.412 -0.037,0.822 -0.075,0.147 0.673,0.018 1.484,-0.122 1.534,0.569 1.615,1.152 Q 2.09,4.577 2.573,8 Z"
         transform="translate(18.387,5.588)"
         fill="url(#linear-gradient)" />
      <path
         id="Path_1000-21"
         data-name="Path 1000"
         d="M 0.033,7.89 C 0.359,5.562 0.686,3.279 1,0.994 1.069,0.484 1.237,-0.024 1.793,0.001 2.419,0.029 2.648,0.555 2.576,1.145 Q 2.115,4.89 1.622,8.631 C 1.551,9.176 1.222,9.531 0.656,9.396 -0.237,9.185 0.046,8.447 0.033,7.89 Z"
         transform="translate(0.029,5.753)"
         fill="url(#linear-gradient)" />
    </g>
    <g
       id="Group_449"
       data-name="Group 449"
       transform="matrix(-0.974,0.225,-0.225,-0.974,277.974,503.623)">
      <path
         id="Path_997-22"
         data-name="Path 997"
         d="m 8.2,12.427 c -2.261,0 -4.521,-0.028 -6.781,0.013 -1.016,0.018 -1.509,-0.4 -1.4,-1.4 C 0.369,7.7 0.758,4.363 1.124,1.022 1.2,0.375 1.68,0.322 2.149,0.279 a 68.285,68.285 0 0 1 12.279,0 c 0.566,0.05 0.973,0.225 1.046,0.914 0.338,3.186 0.712,6.368 1.081,9.55 0.154,1.325 -0.441,1.756 -1.733,1.71 C 12.616,12.37 10.406,12.427 8.2,12.427 Z"
         transform="translate(2.219,4.586)"
         fill="url(#linear-gradient)" />
      <path
         id="Path_998-22"
         data-name="Path 998"
         d="m 10.36,0 a 41.325,41.325 0 0 1 8.631,0.929 c 1.371,0.331 2.259,1.447 1.945,2.563 -0.386,1.373 -1.47,1.252 -2.557,1.083 A 50.224,50.224 0 0 0 2.566,4.589 C 1.478,4.765 0.393,4.835 0.057,3.435 -0.227,2.25 0.574,1.269 1.915,0.928 A 40.084,40.084 0 0 1 10.36,0 Z"
         fill="url(#linear-gradient)" />
      <path
         id="Path_999-22"
         data-name="Path 999"
         d="M 2.573,8 C 2.624,8.6 2.678,9.258 1.914,9.381 1.15,9.504 0.996,8.881 0.914,8.271 0.627,5.985 0.326,3.7 0.038,1.412 -0.037,0.822 -0.075,0.147 0.673,0.018 1.484,-0.122 1.534,0.569 1.615,1.152 Q 2.09,4.577 2.573,8 Z"
         transform="translate(18.387,5.588)"
         fill="url(#linear-gradient)" />
      <path
         id="Path_1000-22"
         data-name="Path 1000"
         d="M 0.033,7.89 C 0.359,5.562 0.686,3.279 1,0.994 1.069,0.484 1.237,-0.024 1.793,0.001 2.419,0.029 2.648,0.555 2.576,1.145 Q 2.115,4.89 1.622,8.631 C 1.551,9.176 1.222,9.531 0.656,9.396 -0.237,9.185 0.046,8.447 0.033,7.89 Z"
         transform="translate(0.029,5.753)"
         fill="url(#linear-gradient)" />
    </g>
    <g
       id="Group_451"
       data-name="Group 451"
       transform="rotate(-149,184.64055,219.82139)">
      <path
         id="Path_997-23"
         data-name="Path 997"
         d="m 8.2,12.427 c -2.261,0 -4.521,-0.028 -6.781,0.013 -1.016,0.018 -1.509,-0.4 -1.4,-1.4 C 0.369,7.7 0.758,4.363 1.124,1.022 1.2,0.375 1.68,0.322 2.149,0.279 a 68.285,68.285 0 0 1 12.279,0 c 0.566,0.05 0.973,0.225 1.046,0.914 0.338,3.186 0.712,6.368 1.081,9.55 0.154,1.325 -0.441,1.756 -1.733,1.71 C 12.616,12.37 10.406,12.427 8.2,12.427 Z"
         transform="translate(2.219,4.586)"
         fill="url(#linear-gradient)" />
      <path
         id="Path_998-23"
         data-name="Path 998"
         d="m 10.36,0 a 41.325,41.325 0 0 1 8.631,0.929 c 1.371,0.331 2.259,1.447 1.945,2.563 -0.386,1.373 -1.47,1.252 -2.557,1.083 A 50.224,50.224 0 0 0 2.566,4.589 C 1.478,4.765 0.393,4.835 0.057,3.435 -0.227,2.25 0.574,1.269 1.915,0.928 A 40.084,40.084 0 0 1 10.36,0 Z"
         fill="url(#linear-gradient)" />
      <path
         id="Path_999-23"
         data-name="Path 999"
         d="M 2.573,8 C 2.624,8.6 2.678,9.258 1.914,9.381 1.15,9.504 0.996,8.881 0.914,8.271 0.627,5.985 0.326,3.7 0.038,1.412 -0.037,0.822 -0.075,0.147 0.673,0.018 1.484,-0.122 1.534,0.569 1.615,1.152 Q 2.09,4.577 2.573,8 Z"
         transform="translate(18.387,5.588)"
         fill="url(#linear-gradient)" />
      <path
         id="Path_1000-23"
         data-name="Path 1000"
         d="M 0.033,7.89 C 0.359,5.562 0.686,3.279 1,0.994 1.069,0.484 1.237,-0.024 1.793,0.001 2.419,0.029 2.648,0.555 2.576,1.145 Q 2.115,4.89 1.622,8.631 C 1.551,9.176 1.222,9.531 0.656,9.396 -0.237,9.185 0.046,8.447 0.033,7.89 Z"
         transform="translate(0.029,5.753)"
         fill="url(#linear-gradient)" />
    </g>
    <circle
       id="Ellipse_32"
       data-name="Ellipse 32"
       cx="31"
       cy="31"
       r="31"
       transform="translate(222.444,425.491)"
       fill="url(#linear-gradient)" />
  </g>
  <g
     id="Meja_4_kursi-2"
     data-name="Meja_4_kursi"
     transform="translate(202,-90)">
    <g
       id="Group_411-2"
       data-name="Group 411"
       transform="rotate(-90,97.8895,68.7505)">
      <path
         id="Path_997-24"
         data-name="Path 997"
         d="m 10.462,15.859 c -2.885,0 -5.77,-0.036 -8.654,0.016 -1.3,0.023 -1.925,-0.512 -1.791,-1.782 C 0.471,9.828 0.968,5.568 1.435,1.3 1.525,0.478 2.144,0.411 2.743,0.356 A 87.143,87.143 0 0 1 18.413,0.35 c 0.722,0.064 1.241,0.287 1.335,1.167 0.432,4.065 0.908,8.127 1.379,12.188 0.2,1.691 -0.563,2.242 -2.212,2.182 C 16.1,15.786 13.28,15.859 10.462,15.859 Z"
         transform="translate(2.832,5.853)"
         fill="url(#linear-gradient)" />
      <path
         id="Path_998-24"
         data-name="Path 998"
         d="m 13.221,0 a 52.738,52.738 0 0 1 11.015,1.185 c 1.749,0.422 2.883,1.846 2.483,3.271 -0.492,1.752 -1.876,1.6 -3.263,1.382 A 64.094,64.094 0 0 0 3.276,5.856 C 1.886,6.081 0.5,6.17 0.073,4.384 -0.29,2.871 0.732,1.62 2.444,1.184 A 51.153,51.153 0 0 1 13.221,0 Z"
         fill="url(#linear-gradient)" />
      <path
         id="Path_999-24"
         data-name="Path 999"
         d="m 3.283,10.21 c 0.065,0.761 0.135,1.606 -0.84,1.762 C 1.468,12.128 1.272,11.334 1.172,10.556 0.8,7.638 0.416,4.721 0.048,1.8 -0.047,1.05 -0.1,0.188 0.859,0.023 c 1.035,-0.179 1.1,0.7 1.2,1.447 q 0.608,4.371 1.224,8.74 z"
         transform="translate(23.465,7.131)"
         fill="url(#linear-gradient)" />
      <path
         id="Path_1000-24"
         data-name="Path 1000"
         d="M 0.042,10.069 C 0.458,7.1 0.875,4.184 1.27,1.268 c 0.089,-0.651 0.3,-1.3 1.013,-1.267 0.8,0.036 1.091,0.707 1,1.46 Q 2.695,6.241 2.066,11.014 C 1.975,11.714 1.555,12.162 0.834,11.991 -0.3,11.722 0.059,10.779 0.042,10.069 Z"
         transform="translate(0.037,7.342)"
         fill="url(#linear-gradient)" />
    </g>
    <g
       id="Group_414-2"
       data-name="Group 414"
       transform="rotate(-90,115.1485,86.0095)">
      <path
         id="Path_997-25"
         data-name="Path 997"
         d="m 10.462,15.859 c -2.885,0 -5.77,-0.036 -8.654,0.016 -1.3,0.023 -1.925,-0.512 -1.791,-1.782 C 0.471,9.828 0.968,5.568 1.435,1.3 1.525,0.478 2.144,0.411 2.743,0.356 A 87.143,87.143 0 0 1 18.413,0.35 c 0.722,0.064 1.241,0.287 1.335,1.167 0.432,4.065 0.908,8.127 1.379,12.188 0.2,1.691 -0.563,2.242 -2.212,2.182 C 16.1,15.786 13.28,15.859 10.462,15.859 Z"
         transform="translate(2.832,5.853)"
         fill="url(#linear-gradient)" />
      <path
         id="Path_998-25"
         data-name="Path 998"
         d="m 13.221,0 a 52.738,52.738 0 0 1 11.015,1.185 c 1.749,0.422 2.883,1.846 2.483,3.271 -0.492,1.752 -1.876,1.6 -3.263,1.382 A 64.094,64.094 0 0 0 3.276,5.856 C 1.886,6.081 0.5,6.17 0.073,4.384 -0.29,2.871 0.732,1.62 2.444,1.184 A 51.153,51.153 0 0 1 13.221,0 Z"
         fill="url(#linear-gradient)" />
      <path
         id="Path_999-25"
         data-name="Path 999"
         d="m 3.283,10.21 c 0.065,0.761 0.135,1.606 -0.84,1.762 C 1.468,12.128 1.272,11.334 1.172,10.556 0.8,7.638 0.416,4.721 0.048,1.8 -0.047,1.05 -0.1,0.188 0.859,0.023 c 1.035,-0.179 1.1,0.7 1.2,1.447 q 0.608,4.371 1.224,8.74 z"
         transform="translate(23.465,7.131)"
         fill="url(#linear-gradient)" />
      <path
         id="Path_1000-25"
         data-name="Path 1000"
         d="M 0.042,10.069 C 0.458,7.1 0.875,4.184 1.27,1.268 c 0.089,-0.651 0.3,-1.3 1.013,-1.267 0.8,0.036 1.091,0.707 1,1.46 Q 2.695,6.241 2.066,11.014 C 1.975,11.714 1.555,12.162 0.834,11.991 -0.3,11.722 0.059,10.779 0.042,10.069 Z"
         transform="translate(0.037,7.342)"
         fill="url(#linear-gradient)" />
    </g>
    <g
       id="Group_412-2"
       data-name="Group 412"
       transform="rotate(90,-8.139,129.702)">
      <path
         id="Path_997-26"
         data-name="Path 997"
         d="m 10.462,15.859 c -2.885,0 -5.77,-0.036 -8.654,0.016 -1.3,0.023 -1.925,-0.512 -1.791,-1.782 C 0.471,9.828 0.968,5.568 1.435,1.3 1.525,0.478 2.144,0.411 2.743,0.356 A 87.143,87.143 0 0 1 18.413,0.35 c 0.722,0.064 1.241,0.287 1.335,1.167 0.432,4.065 0.908,8.127 1.379,12.188 0.2,1.691 -0.563,2.242 -2.212,2.182 C 16.1,15.786 13.28,15.859 10.462,15.859 Z"
         transform="translate(2.832,5.853)"
         fill="url(#linear-gradient)" />
      <path
         id="Path_998-26"
         data-name="Path 998"
         d="m 13.221,0 a 52.738,52.738 0 0 1 11.015,1.185 c 1.749,0.422 2.883,1.846 2.483,3.271 -0.492,1.752 -1.876,1.6 -3.263,1.382 A 64.094,64.094 0 0 0 3.276,5.856 C 1.886,6.081 0.5,6.17 0.073,4.384 -0.29,2.871 0.732,1.62 2.444,1.184 A 51.153,51.153 0 0 1 13.221,0 Z"
         fill="url(#linear-gradient)" />
      <path
         id="Path_999-26"
         data-name="Path 999"
         d="m 3.283,10.21 c 0.065,0.761 0.135,1.606 -0.84,1.762 C 1.468,12.128 1.272,11.334 1.172,10.556 0.8,7.638 0.416,4.721 0.048,1.8 -0.047,1.05 -0.1,0.188 0.859,0.023 c 1.035,-0.179 1.1,0.7 1.2,1.447 q 0.608,4.371 1.224,8.74 z"
         transform="translate(23.465,7.131)"
         fill="url(#linear-gradient)" />
      <path
         id="Path_1000-26"
         data-name="Path 1000"
         d="M 0.042,10.069 C 0.458,7.1 0.875,4.184 1.27,1.268 c 0.089,-0.651 0.3,-1.3 1.013,-1.267 0.8,0.036 1.091,0.707 1,1.46 Q 2.695,6.241 2.066,11.014 C 1.975,11.714 1.555,12.162 0.834,11.991 -0.3,11.722 0.059,10.779 0.042,10.069 Z"
         transform="translate(0.037,7.342)"
         fill="url(#linear-gradient)" />
    </g>
    <g
       id="Group_413-2"
       data-name="Group 413"
       transform="rotate(90,-26.398,147.961)">
      <path
         id="Path_997-27"
         data-name="Path 997"
         d="m 10.462,15.859 c -2.885,0 -5.77,-0.036 -8.654,0.016 -1.3,0.023 -1.925,-0.512 -1.791,-1.782 C 0.471,9.828 0.968,5.568 1.435,1.3 1.525,0.478 2.144,0.411 2.743,0.356 A 87.143,87.143 0 0 1 18.413,0.35 c 0.722,0.064 1.241,0.287 1.335,1.167 0.432,4.065 0.908,8.127 1.379,12.188 0.2,1.691 -0.563,2.242 -2.212,2.182 C 16.1,15.786 13.28,15.859 10.462,15.859 Z"
         transform="translate(2.832,5.853)"
         fill="url(#linear-gradient)" />
      <path
         id="Path_998-27"
         data-name="Path 998"
         d="m 13.221,0 a 52.738,52.738 0 0 1 11.015,1.185 c 1.749,0.422 2.883,1.846 2.483,3.271 -0.492,1.752 -1.876,1.6 -3.263,1.382 A 64.094,64.094 0 0 0 3.276,5.856 C 1.886,6.081 0.5,6.17 0.073,4.384 -0.29,2.871 0.732,1.62 2.444,1.184 A 51.153,51.153 0 0 1 13.221,0 Z"
         fill="url(#linear-gradient)" />
      <path
         id="Path_999-27"
         data-name="Path 999"
         d="m 3.283,10.21 c 0.065,0.761 0.135,1.606 -0.84,1.762 C 1.468,12.128 1.272,11.334 1.172,10.556 0.8,7.638 0.416,4.721 0.048,1.8 -0.047,1.05 -0.1,0.188 0.859,0.023 c 1.035,-0.179 1.1,0.7 1.2,1.447 q 0.608,4.371 1.224,8.74 z"
         transform="translate(23.465,7.131)"
         fill="url(#linear-gradient)" />
      <path
         id="Path_1000-27"
         data-name="Path 1000"
         d="M 0.042,10.069 C 0.458,7.1 0.875,4.184 1.27,1.268 c 0.089,-0.651 0.3,-1.3 1.013,-1.267 0.8,0.036 1.091,0.707 1,1.46 Q 2.695,6.241 2.066,11.014 C 1.975,11.714 1.555,12.162 0.834,11.991 -0.3,11.722 0.059,10.779 0.042,10.069 Z"
         transform="translate(0.037,7.342)"
         fill="url(#linear-gradient)" />
    </g>
    <rect
       id="Rectangle_220-2"
       data-name="Rectangle 220"
       width="37"
       height="68"
       rx="12"
       transform="translate(57,135)"
       fill="url(#linear-gradient)"
       x="0"
       y="0" />
  </g>
  <g
     id="Meja_2_kursi-2"
     data-name="Meja_2_kursi"
     transform="translate(-16,-35)">
    <g
       id="Group_432-2"
       data-name="Group 432"
       transform="rotate(-90,297.1835,50.0445)">
      <path
         id="Path_997-28"
         data-name="Path 997"
         d="m 10.462,15.859 c -2.885,0 -5.77,-0.036 -8.654,0.016 -1.3,0.023 -1.925,-0.512 -1.791,-1.782 C 0.471,9.828 0.968,5.568 1.435,1.3 1.525,0.478 2.144,0.411 2.743,0.356 A 87.143,87.143 0 0 1 18.413,0.35 c 0.722,0.064 1.241,0.287 1.335,1.167 0.432,4.065 0.908,8.127 1.379,12.188 0.2,1.691 -0.563,2.242 -2.212,2.182 C 16.1,15.786 13.28,15.859 10.462,15.859 Z"
         transform="translate(2.832,5.853)"
         fill="url(#linear-gradient)" />
      <path
         id="Path_998-28"
         data-name="Path 998"
         d="m 13.221,0 a 52.738,52.738 0 0 1 11.015,1.185 c 1.749,0.422 2.883,1.846 2.483,3.271 -0.492,1.752 -1.876,1.6 -3.263,1.382 A 64.094,64.094 0 0 0 3.276,5.856 C 1.886,6.081 0.5,6.17 0.073,4.384 -0.29,2.871 0.732,1.62 2.444,1.184 A 51.153,51.153 0 0 1 13.221,0 Z"
         fill="url(#linear-gradient)" />
      <path
         id="Path_999-28"
         data-name="Path 999"
         d="m 3.283,10.21 c 0.065,0.761 0.135,1.606 -0.84,1.762 C 1.468,12.128 1.272,11.334 1.172,10.556 0.8,7.638 0.416,4.721 0.048,1.8 -0.047,1.05 -0.1,0.188 0.859,0.023 c 1.035,-0.179 1.1,0.7 1.2,1.447 q 0.608,4.371 1.224,8.74 z"
         transform="translate(23.465,7.131)"
         fill="url(#linear-gradient)" />
      <path
         id="Path_1000-28"
         data-name="Path 1000"
         d="M 0.041,10.069 C 0.458,7.1 0.875,4.184 1.27,1.268 c 0.089,-0.651 0.3,-1.3 1.013,-1.267 0.8,0.036 1.091,0.707 1,1.46 Q 2.695,6.241 2.066,11.014 C 1.975,11.714 1.555,12.162 0.834,11.991 -0.3,11.722 0.059,10.779 0.041,10.069 Z"
         transform="translate(0.037,7.342)"
         fill="url(#linear-gradient)" />
    </g>
    <g
       id="Group_431-2"
       data-name="Group 431"
       transform="rotate(90,9.567,329.996)">
      <path
         id="Path_997-29"
         data-name="Path 997"
         d="m 10.462,15.859 c -2.885,0 -5.77,-0.036 -8.654,0.016 -1.3,0.023 -1.925,-0.512 -1.791,-1.782 C 0.471,9.828 0.968,5.568 1.435,1.3 1.525,0.478 2.144,0.411 2.743,0.356 A 87.143,87.143 0 0 1 18.413,0.35 c 0.722,0.064 1.241,0.287 1.335,1.167 0.432,4.065 0.908,8.127 1.379,12.188 0.2,1.691 -0.563,2.242 -2.212,2.182 C 16.1,15.786 13.28,15.859 10.462,15.859 Z"
         transform="translate(2.832,5.853)"
         fill="url(#linear-gradient)" />
      <path
         id="Path_998-29"
         data-name="Path 998"
         d="m 13.221,0 a 52.738,52.738 0 0 1 11.015,1.185 c 1.749,0.422 2.883,1.846 2.483,3.271 -0.492,1.752 -1.876,1.6 -3.263,1.382 A 64.094,64.094 0 0 0 3.276,5.856 C 1.886,6.081 0.5,6.17 0.073,4.384 -0.29,2.871 0.732,1.62 2.444,1.184 A 51.153,51.153 0 0 1 13.221,0 Z"
         fill="url(#linear-gradient)" />
      <path
         id="Path_999-29"
         data-name="Path 999"
         d="m 3.283,10.21 c 0.065,0.761 0.135,1.606 -0.84,1.762 C 1.468,12.128 1.272,11.334 1.172,10.556 0.8,7.638 0.416,4.721 0.048,1.8 -0.047,1.05 -0.1,0.188 0.859,0.023 c 1.035,-0.179 1.1,0.7 1.2,1.447 q 0.608,4.371 1.224,8.74 z"
         transform="translate(23.465,7.131)"
         fill="url(#linear-gradient)" />
      <path
         id="Path_1000-29"
         data-name="Path 1000"
         d="M 0.041,10.069 C 0.458,7.1 0.875,4.184 1.27,1.268 c 0.089,-0.651 0.3,-1.3 1.013,-1.267 0.8,0.036 1.091,0.707 1,1.46 Q 2.695,6.241 2.066,11.014 C 1.975,11.714 1.555,12.162 0.834,11.991 -0.3,11.722 0.059,10.779 0.041,10.069 Z"
         transform="translate(0.037,7.342)"
         fill="url(#linear-gradient)" />
    </g>
    <rect
       id="Rectangle_225-2"
       data-name="Rectangle 225"
       width="37"
       height="36"
       rx="12"
       transform="translate(275,316)"
       fill="url(#linear-gradient)"
       x="0"
       y="0" />
  </g>
  <g
     id="Meja_2_kursi-3"
     data-name="Meja_2_kursi"
     transform="translate(-234,-35)">
    <g
       id="Group_432-3"
       data-name="Group 432"
       transform="rotate(-90,297.1835,50.0445)">
      <path
         id="Path_997-30"
         data-name="Path 997"
         d="m 10.462,15.859 c -2.885,0 -5.77,-0.036 -8.654,0.016 -1.3,0.023 -1.925,-0.512 -1.791,-1.782 C 0.471,9.828 0.968,5.568 1.435,1.3 1.525,0.478 2.144,0.411 2.743,0.356 A 87.143,87.143 0 0 1 18.413,0.35 c 0.722,0.064 1.241,0.287 1.335,1.167 0.432,4.065 0.908,8.127 1.379,12.188 0.2,1.691 -0.563,2.242 -2.212,2.182 C 16.1,15.786 13.28,15.859 10.462,15.859 Z"
         transform="translate(2.832,5.853)"
         fill="url(#linear-gradient)" />
      <path
         id="Path_998-30"
         data-name="Path 998"
         d="m 13.221,0 a 52.738,52.738 0 0 1 11.015,1.185 c 1.749,0.422 2.883,1.846 2.483,3.271 -0.492,1.752 -1.876,1.6 -3.263,1.382 A 64.094,64.094 0 0 0 3.276,5.856 C 1.886,6.081 0.5,6.17 0.073,4.384 -0.29,2.871 0.732,1.62 2.444,1.184 A 51.153,51.153 0 0 1 13.221,0 Z"
         fill="url(#linear-gradient)" />
      <path
         id="Path_999-30"
         data-name="Path 999"
         d="m 3.283,10.21 c 0.065,0.761 0.135,1.606 -0.84,1.762 C 1.468,12.128 1.272,11.334 1.172,10.556 0.8,7.638 0.416,4.721 0.048,1.8 -0.047,1.05 -0.1,0.188 0.859,0.023 c 1.035,-0.179 1.1,0.7 1.2,1.447 q 0.608,4.371 1.224,8.74 z"
         transform="translate(23.465,7.131)"
         fill="url(#linear-gradient)" />
      <path
         id="Path_1000-30"
         data-name="Path 1000"
         d="M 0.041,10.069 C 0.458,7.1 0.875,4.184 1.27,1.268 c 0.089,-0.651 0.3,-1.3 1.013,-1.267 0.8,0.036 1.091,0.707 1,1.46 Q 2.695,6.241 2.066,11.014 C 1.975,11.714 1.555,12.162 0.834,11.991 -0.3,11.722 0.059,10.779 0.041,10.069 Z"
         transform="translate(0.037,7.342)"
         fill="url(#linear-gradient)" />
    </g>
    <g
       id="Group_431-3"
       data-name="Group 431"
       transform="rotate(90,9.567,329.996)">
      <path
         id="Path_997-31"
         data-name="Path 997"
         d="m 10.462,15.859 c -2.885,0 -5.77,-0.036 -8.654,0.016 -1.3,0.023 -1.925,-0.512 -1.791,-1.782 C 0.471,9.828 0.968,5.568 1.435,1.3 1.525,0.478 2.144,0.411 2.743,0.356 A 87.143,87.143 0 0 1 18.413,0.35 c 0.722,0.064 1.241,0.287 1.335,1.167 0.432,4.065 0.908,8.127 1.379,12.188 0.2,1.691 -0.563,2.242 -2.212,2.182 C 16.1,15.786 13.28,15.859 10.462,15.859 Z"
         transform="translate(2.832,5.853)"
         fill="url(#linear-gradient)" />
      <path
         id="Path_998-31"
         data-name="Path 998"
         d="m 13.221,0 a 52.738,52.738 0 0 1 11.015,1.185 c 1.749,0.422 2.883,1.846 2.483,3.271 -0.492,1.752 -1.876,1.6 -3.263,1.382 A 64.094,64.094 0 0 0 3.276,5.856 C 1.886,6.081 0.5,6.17 0.073,4.384 -0.29,2.871 0.732,1.62 2.444,1.184 A 51.153,51.153 0 0 1 13.221,0 Z"
         fill="url(#linear-gradient)" />
      <path
         id="Path_999-31"
         data-name="Path 999"
         d="m 3.283,10.21 c 0.065,0.761 0.135,1.606 -0.84,1.762 C 1.468,12.128 1.272,11.334 1.172,10.556 0.8,7.638 0.416,4.721 0.048,1.8 -0.047,1.05 -0.1,0.188 0.859,0.023 c 1.035,-0.179 1.1,0.7 1.2,1.447 q 0.608,4.371 1.224,8.74 z"
         transform="translate(23.465,7.131)"
         fill="url(#linear-gradient)" />
      <path
         id="Path_1000-31"
         data-name="Path 1000"
         d="M 0.041,10.069 C 0.458,7.1 0.875,4.184 1.27,1.268 c 0.089,-0.651 0.3,-1.3 1.013,-1.267 0.8,0.036 1.091,0.707 1,1.46 Q 2.695,6.241 2.066,11.014 C 1.975,11.714 1.555,12.162 0.834,11.991 -0.3,11.722 0.059,10.779 0.041,10.069 Z"
         transform="translate(0.037,7.342)"
         fill="url(#linear-gradient)" />
    </g>
    <rect
       id="Rectangle_225-3"
       data-name="Rectangle 225"
       width="37"
       height="36"
       rx="12"
       transform="translate(275,316)"
       fill="url(#linear-gradient)"
       x="0"
       y="0" />
  </g>
</svg>
